<?xml version="1.0" encoding="utf-8"?>
<!-- Generator: Adobe Illustrator 15.0.2, SVG Export Plug-In . SVG Version: 6.00 Build 0)  -->
<!DOCTYPE svg PUBLIC "-//W3C//DTD SVG 1.1//EN" "http://www.w3.org/Graphics/SVG/1.1/DTD/svg11.dtd">
<svg version="1.1" xmlns="http://www.w3.org/2000/svg" xmlns:xlink="http://www.w3.org/1999/xlink" x="0px" y="0px" width="1728px"
	 height="1728px" viewBox="0 0 1728 1728" enable-background="new 0 0 1728 1728" xml:space="preserve">
<g id="messenger">
	<rect y="1296" fill="#00AEEF" width="432" height="432"/>
	<rect x="1296" fill="#BE1E2D" width="432" height="432"/>
	<g>
		<path fill="none" d="M1296,21.26"/>
	</g>
	<g>
		<path fill="none" d="M1296,410.74"/>
	</g>
	<text transform="matrix(1 0 0 1 1168.7295 259.6841)" font-family="'Myriad-Roman'" font-size="100">6”</text>
	<text transform="matrix(1 0 0 1 188.9976 1248)" font-family="'Myriad-Roman'" font-size="100">6”</text>
</g>
<g id="ryodo" display="none">
	<circle id="center_4_1_" display="inline" fill="#939598" cx="864.472" cy="864.5" r="144"/>
	<circle display="inline" fill="#BE1E2D" cx="1368.472" cy="576.5" r="144"/>
	<path display="inline" fill="#00AEEF" d="M503.527,1151.499c0,79.527-64.469,144.001-144,144.001c-79.527,0-144-64.474-144-144.001
		c0-79.526,64.473-143.999,144-143.999C439.059,1007.5,503.527,1071.973,503.527,1151.499z"/>
	<rect x="0.472" y="1642.961" display="inline" fill="#00AEEF" width="1728" height="85.039"/>
	<rect display="inline" fill="#BE1E2D" width="1728" height="85.039"/>
	
		<line display="inline" fill="none" stroke="#000000" stroke-width="8" stroke-miterlimit="10" stroke-dasharray="18" x1="1728.472" y1="576.5" x2="1513.082" y2="576.5"/>
	<text transform="matrix(1 0 0 1 1577.8594 517.7524)" display="inline" font-family="'Myriad-Roman'" font-size="100">3”</text>
	
		<line display="inline" fill="none" stroke="#000000" stroke-width="8" stroke-miterlimit="10" stroke-dasharray="18" x1="1728" y1="865.874" x2="1008.472" y2="865.874"/>
	<text transform="matrix(1 0 0 1 1073.25 807.1265)" display="inline" font-family="'Myriad-Roman'" font-size="100">10”</text>
	
		<line display="inline" fill="none" stroke="#000000" stroke-width="8" stroke-miterlimit="10" stroke-dasharray="18" x1="215.861" y1="1151.5" x2="0.472" y2="1151.5"/>
	<text transform="matrix(1 0 0 1 65.2495 1092.7529)" display="inline" font-family="'Myriad-Roman'" font-size="100">3”</text>
	
		<line display="inline" fill="none" stroke="#000000" stroke-width="8" stroke-miterlimit="10" stroke-dasharray="18" x1="864.472" y1="719.529" x2="864.472" y2="0"/>
	<text transform="matrix(1 0 0 1 916.2344 619.1172)" display="inline" font-family="'Myriad-Roman'" font-size="100">10”</text>
	
		<line display="inline" fill="none" stroke="#000000" stroke-width="8" stroke-miterlimit="10" stroke-dasharray="18" x1="359.527" y1="1728" x2="359.527" y2="1295.5"/>
	<text transform="matrix(1 0 0 1 410.7925 1511.75)" display="inline" font-family="'Myriad-Roman'" font-size="100">6”</text>
	
		<line display="inline" fill="none" stroke="#000000" stroke-width="8" stroke-miterlimit="10" stroke-dasharray="18" x1="1368.472" y1="418.952" x2="1368.472" y2="-13.548"/>
	<text transform="matrix(1 0 0 1 1419.7363 286.71)" display="inline" font-family="'Myriad-Roman'" font-size="100">6”</text>
</g>
<g id="reikan" display="none">
	<rect y="1642.961" display="inline" fill="#00AEEF" width="1728" height="85.039"/>
	<rect display="inline" fill="#BE1E2D" width="1728" height="85.039"/>
</g>
<g id="itchi_no_riten" display="none">
	<path display="inline" fill="#BE1E2D" d="M1512,720c0,159.053-128.938,288-288,288c-159.055,0-288-128.947-288-288
		c0-159.053,128.945-288,288-288C1383.062,432,1512,560.947,1512,720z"/>
	<path display="inline" fill="#00AEEF" stroke="#939598" stroke-miterlimit="10" d="M792,1008c0,159.053-128.938,288-288,288
		c-159.055,0-288-128.947-288-288s128.945-288,288-288C663.062,720,792,848.947,792,1008z"/>
	<rect y="1642.961" display="inline" fill="#00AEEF" width="1728" height="85.039"/>
	<rect y="0" display="inline" fill="#BE1E2D" width="1728" height="85.039"/>
	<g display="inline">
		<g>
			<line fill="none" stroke="#000000" stroke-width="8" stroke-miterlimit="10" x1="1224" y1="437.056" x2="1224" y2="428.056"/>
			
				<line fill="none" stroke="#000000" stroke-width="8" stroke-miterlimit="10" stroke-dasharray="18.2198,18.2198" x1="1224" y1="409.836" x2="1224" y2="18.11"/>
			<line fill="none" stroke="#000000" stroke-width="8" stroke-miterlimit="10" x1="1224" y1="9" x2="1224" y2="0"/>
		</g>
	</g>
	
		<line display="inline" fill="none" stroke="#000000" stroke-width="8" stroke-miterlimit="10" stroke-dasharray="18" x1="216" y1="1008" x2="0" y2="1008"/>
	
		<line display="inline" fill="none" stroke="#000000" stroke-width="8" stroke-miterlimit="10" stroke-dasharray="18" x1="1728" y1="720" x2="1512" y2="720"/>
	<text transform="matrix(1 0 0 1 1584.8301 666.7646)" display="inline" font-family="'Myriad-Roman'" font-size="100">3”</text>
	<text transform="matrix(1 0 0 1 1278.792 279.7261)" display="inline" font-family="'Myriad-Roman'" font-size="100">6”</text>
	<text transform="matrix(1 0 0 1 581.7788 1503.4707)" display="inline" font-family="'Myriad-Roman'" font-size="100">6”</text>
	<text transform="matrix(1 0 0 1 80.7295 1146.8086)" display="inline" font-family="'Myriad-Roman'" font-size="100">3”</text>
	<g display="inline">
		<g>
			<line fill="none" stroke="#000000" stroke-width="8" stroke-miterlimit="10" x1="504" y1="1728" x2="504" y2="1719"/>
			
				<line fill="none" stroke="#000000" stroke-width="8" stroke-miterlimit="10" stroke-dasharray="18,18" x1="504" y1="1701" x2="504" y2="1314"/>
			<line fill="none" stroke="#000000" stroke-width="8" stroke-miterlimit="10" x1="504" y1="1305" x2="504" y2="1296"/>
		</g>
	</g>
</g>
<g id="botoku" display="none">
	<circle display="inline" stroke="#BE1E2D" stroke-width="7" stroke-miterlimit="10" cx="1225" cy="502.866" r="70.866"/>
	<circle display="inline" stroke="#00AEEF" stroke-width="7" stroke-miterlimit="10" cx="502.867" cy="1225.729" r="70.866"/>
	<rect x="0.5" y="1296" display="inline" fill="#00AEEF" width="432" height="432"/>
	<rect x="1296.5" display="inline" fill="#BE1E2D" width="432" height="432"/>
	<g display="inline">
		<path fill="none" d="M1296.5,21.26"/>
	</g>
	<g display="inline">
		<path fill="none" d="M1296.5,410.74"/>
	</g>
	<text transform="matrix(1 0 0 1 1085.2295 283.6841)" display="inline" font-family="'Myriad-Roman'" font-size="100">6”</text>
	<text transform="matrix(1 0 0 1 189.4976 1154.8633)" display="inline" font-family="'Myriad-Roman'" font-size="100">6”</text>
	
		<line display="inline" fill="none" stroke="#000000" stroke-width="8" stroke-miterlimit="10" stroke-dasharray="18" x1="1728.816" y1="502.866" x2="1296.183" y2="502.866"/>
	
		<line display="inline" fill="none" stroke="#000000" stroke-width="8" stroke-miterlimit="10" stroke-dasharray="18" x1="1225" y1="432.317" x2="1225" y2="-0.317"/>
	<text transform="matrix(1 0 0 1 1485.2295 617.6841)" display="inline" font-family="'Myriad-Roman'" font-size="100">6”</text>
	
		<line display="inline" fill="none" stroke="#000000" stroke-width="8" stroke-miterlimit="10" stroke-dasharray="18" x1="502.867" y1="1728.316" x2="502.867" y2="1295.684"/>
	
		<line display="inline" fill="none" stroke="#000000" stroke-width="8" stroke-miterlimit="10" stroke-dasharray="18" x1="0.183" y1="1225.729" x2="432.817" y2="1225.729"/>
	<text transform="matrix(1 0 0 1 573.7329 1551)" display="inline" font-family="'Myriad-Roman'" font-size="100">6”</text>
	<circle id="center_4_2_" display="inline" fill="#939598" cx="864" cy="864" r="144"/>
	
		<line display="inline" fill="none" stroke="#000000" stroke-width="8" stroke-miterlimit="10" stroke-dasharray="18" x1="1728.816" y1="864" x2="1008" y2="864"/>
	<text transform="matrix(1 0 0 1 1330.4082 977.6836)" display="inline" font-family="'Myriad-Roman'" font-size="100">10”</text>
	
		<line display="inline" fill="none" stroke="#000000" stroke-width="8" stroke-miterlimit="10" stroke-dasharray="18" x1="864" y1="720.5" x2="864" y2="-0.317"/>
	<text transform="matrix(1 0 0 1 667.4082 410.7402)" display="inline" font-family="'Myriad-Roman'" font-size="100">10”</text>
</g>
<g id="idols" display="none">
	<rect y="1642.961" display="inline" fill="#00AEEF" width="1728" height="85.039"/>
	<rect y="0" display="inline" fill="#BE1E2D" width="1728" height="85.039"/>
	
		<circle id="centre_idol_1_" display="inline" stroke="#939598" stroke-width="7" stroke-miterlimit="10" cx="864" cy="864" r="42.52"/>
	<circle display="inline" stroke="#939598" stroke-width="7" stroke-miterlimit="10" cx="432" cy="864" r="42.52"/>
	<circle display="inline" stroke="#939598" stroke-width="7" stroke-miterlimit="10" cx="1296" cy="864" r="42.52"/>
	<g display="inline">
		<g>
			<line fill="none" stroke="#000000" stroke-width="8" stroke-miterlimit="10" x1="432" y1="821.481" x2="432" y2="812.481"/>
			
				<line fill="none" stroke="#000000" stroke-width="8" stroke-miterlimit="10" stroke-dasharray="17.8551,17.8551" x1="432" y1="794.626" x2="432" y2="17.928"/>
			<line fill="none" stroke="#000000" stroke-width="8" stroke-miterlimit="10" x1="432" y1="9" x2="432" y2="0"/>
		</g>
	</g>
	
		<line display="inline" fill="none" stroke="#000000" stroke-width="8" stroke-miterlimit="10" stroke-dasharray="18" x1="389.48" y1="864" x2="0" y2="864"/>
	
		<line display="inline" fill="none" stroke="#000000" stroke-width="8" stroke-miterlimit="10" stroke-dasharray="18" x1="906.52" y1="864" x2="1296" y2="864"/>
	
		<line display="inline" fill="none" stroke="#000000" stroke-width="8" stroke-miterlimit="10" stroke-dasharray="18" x1="1728" y1="864" x2="1338.52" y2="864"/>
	<text transform="matrix(1 0 0 1 461.7793 446.7778)" display="inline" font-family="'Myriad-Roman'" font-size="100">12”</text>
	<text transform="matrix(1 0 0 1 1026.7744 795.7778)" display="inline" font-family="'Myriad-Roman'" font-size="100">12”</text>
	<text transform="matrix(1 0 0 1 1482.8125 795.7778)" display="inline" font-family="'Myriad-Roman'" font-size="100">6”</text>
	<text transform="matrix(1 0 0 1 194.7402 795.7778)" display="inline" font-family="'Myriad-Roman'" font-size="100">6”</text>
</g>
<g id="keii" display="none">
	<rect x="0.235" y="1642.961" display="inline" fill="#00AEEF" width="1728" height="85.039"/>
	<rect x="-0.236" display="inline" fill="#BE1E2D" width="1728" height="85.039"/>
	<circle display="inline" stroke="#BE1E2D" stroke-width="7" stroke-miterlimit="10" cx="576" cy="432" r="42.52"/>
	<circle display="inline" stroke="#BE1E2D" stroke-width="7" stroke-miterlimit="10" cx="1152" cy="432" r="42.52"/>
	<circle display="inline" stroke="#00AEEF" stroke-width="7" stroke-miterlimit="10" cx="576" cy="1296" r="42.52"/>
	<circle display="inline" stroke="#00AEEF" stroke-width="7" stroke-miterlimit="10" cx="1152" cy="1296" r="42.52"/>
	<circle display="inline" stroke="#939598" stroke-width="7" stroke-miterlimit="10" cx="432" cy="864" r="42.52"/>
	<circle display="inline" stroke="#939598" stroke-width="7" stroke-miterlimit="10" cx="1296" cy="864" r="42.52"/>
	<g display="inline">
		<g>
			<line fill="none" stroke="#000000" stroke-width="8" stroke-miterlimit="10" x1="432" y1="821.48" x2="432" y2="812.48"/>
			
				<line fill="none" stroke="#000000" stroke-width="8" stroke-miterlimit="10" stroke-dasharray="17.8551,17.8551" x1="432" y1="794.625" x2="432" y2="17.928"/>
			<line fill="none" stroke="#000000" stroke-width="8" stroke-miterlimit="10" x1="432" y1="9" x2="432" y2="0"/>
		</g>
	</g>
	
		<line display="inline" fill="none" stroke="#000000" stroke-width="8" stroke-miterlimit="10" stroke-dasharray="18" x1="389.48" y1="864" x2="0" y2="864"/>
	
		<line display="inline" fill="none" stroke="#000000" stroke-width="8" stroke-miterlimit="10" stroke-dasharray="18" x1="1719.373" y1="432" x2="1194.52" y2="432"/>
	<text transform="matrix(1 0 0 1 233.7568 255.4268)" display="inline" font-family="'Myriad-Roman'" font-size="100">12”</text>
	<text transform="matrix(1 0 0 1 1416.8057 389.4805)" display="inline" font-family="'Myriad-Roman'" font-size="100">8”</text>
	<text transform="matrix(1 0 0 1 167.7378 821.4805)" display="inline" font-family="'Myriad-Roman'" font-size="100">6”</text>
	<g display="inline">
		<g>
			<line fill="none" stroke="#000000" stroke-width="8" stroke-miterlimit="10" x1="1152" y1="389.48" x2="1152" y2="380.48"/>
			
				<line fill="none" stroke="#000000" stroke-width="8" stroke-miterlimit="10" stroke-dasharray="17.6895,17.6895" x1="1152" y1="362.791" x2="1152" y2="17.845"/>
			<line fill="none" stroke="#000000" stroke-width="8" stroke-miterlimit="10" x1="1152" y1="9" x2="1152" y2="0"/>
		</g>
	</g>
	<text transform="matrix(1 0 0 1 1022.7295 255.4268)" display="inline" font-family="'Myriad-Roman'" font-size="100">6”</text>
</g>
</svg>
